HIERARCHY
ROOT Hips
{
	OFFSET -3.958830 18.904000 13.208200
	CHANNELS 6 Xposition Yposition Zposition Zrotation Yrotation Xrotation 
	JOINT LHipJoint
	{
		OFFSET 0.000000 0.000000 0.000000
		CHANNELS 3 Zrotation Yrotation Xrotation
		JOINT LeftUpLeg
		{
			OFFSET 1.800000 -1.400000 0.085000
			CHANNELS 3 Zrotation Yrotation Xrotation
			JOINT LeftLeg
			{
				OFFSET 2.215000 -6.000000 0.000000
				CHANNELS 3 Zrotation Yrotation Xrotation
				JOINT LeftFoot
				{
					OFFSET 2.500000 -6.900000 0.000000
					CHANNELS 3 Zrotation Yrotation Xrotation
					JOINT LeftToeBase
					{
						OFFSET 0.200000 -0.500000 1.950000
						CHANNELS 3 Zrotation Yrotation Xrotation
						End Site
						{
							OFFSET 0.000000 0.000000 0.000000
						}
					}
				}
			}
		}
	}
	JOINT RHipJoint
	{
		OFFSET 0.000000 0.000000 0.000000
		CHANNELS 3 Zrotation Yrotation Xrotation
		JOINT RightUpLeg
		{
			OFFSET -1.800000 -1.400000 0.085000
			CHANNELS 3 Zrotation Yrotation Xrotation
			JOINT RightLeg
			{
				OFFSET -2.215000 -6.000000 0.000000
				CHANNELS 3 Zrotation Yrotation Xrotation
				JOINT RightFoot
				{
					OFFSET -2.500000 -6.900000 0.000000
					CHANNELS 3 Zrotation Yrotation Xrotation
					JOINT RightToeBase
					{
						OFFSET -0.200000 -0.500000 1.950000
						CHANNELS 3 Zrotation Yrotation Xrotation
						End Site
						{
							OFFSET 0.000000 0.000000 0.000000
						}
					}
				}
			}
		}
	}
	JOINT LowerBack
	{
		OFFSET 0.000000 0.000000 0.000000
		CHANNELS 3 Zrotation Yrotation Xrotation
		JOINT Spine
		{
			OFFSET -0.087000 1.940000 -0.288900
			CHANNELS 3 Zrotation Yrotation Xrotation
			JOINT Spine1
			{
				OFFSET 0.000000 1.950000 0.060000
				CHANNELS 3 Zrotation Yrotation Xrotation
				JOINT Neck
				{
					OFFSET 0.000000 0.000000 0.000000
					CHANNELS 3 Zrotation Yrotation Xrotation
					JOINT Neck1
					{
						OFFSET 0.000000 1.600000 0.340000
						CHANNELS 3 Zrotation Yrotation Xrotation
						JOINT Head
						{
							OFFSET 0.000000 1.667000 -0.240000
							CHANNELS 3 Zrotation Yrotation Xrotation
							End Site
							{
								OFFSET 0.000000 0.000000 0.000000
							}
						}
					}
				}
				JOINT LeftShoulder
				{
					OFFSET 0.000000 0.000000 0.000000
					CHANNELS 3 Zrotation Yrotation Xrotation
					JOINT LeftArm
					{
						OFFSET 2.700000 1.550000 -0.730000
						CHANNELS 3 Zrotation Yrotation Xrotation
						JOINT LeftForeArm
						{
							OFFSET 5.450000 0.000000 0.000000
							CHANNELS 3 Zrotation Yrotation Xrotation
							JOINT LeftHand
							{
								OFFSET 3.450000 0.000000 0.000000
								CHANNELS 3 Zrotation Yrotation Xrotation
								JOINT LeftHandIndex1
								{
									OFFSET 0.750000 0.000000 0.000000
									CHANNELS 3 Zrotation Yrotation Xrotation
									End Site
									{
										OFFSET 0.000000 0.000000 0.000000
									}
								}
							}
						}
					}
				}
				JOINT RightShoulder
				{
					OFFSET 0.000000 0.000000 0.000000
					CHANNELS 3 Zrotation Yrotation Xrotation
					JOINT RightArm
					{
						OFFSET -2.700000 1.550000 -0.730000
						CHANNELS 3 Zrotation Yrotation Xrotation
						JOINT RightForeArm
						{
							OFFSET -5.450000 0.000000 0.000000
							CHANNELS 3 Zrotation Yrotation Xrotation
							JOINT RightHand
							{
								OFFSET -3.450000 0.000000 0.000000
								CHANNELS 3 Zrotation Yrotation Xrotation
								JOINT RightHandIndex1
								{
									OFFSET -0.750000 0.000000 0.000000
									CHANNELS 3 Zrotation Yrotation Xrotation
									End Site
									{
										OFFSET 0.000000 0.000000 0.000000
									}
								}
							}
						}
					}
				}
			}
		}
	}
}
MOTION
Frames: 10
Frame Time: 0.016667
0.063210 16.058780 -6.449600 14.134563 0.856146 16.170867 -15.251463 11.367104 2.500498 22.231235 -0.445704 -33.025864 13.477613 2.529828 11.173541 -0.463897 3.780909 3.282611 -0.151270 -0.508190 0.088420 18.815985 -7.257905 6.509980 -46.200795 1.028679 -49.383445 55.190662 -26.964150 23.807407 -1.368021 -9.643187 1.093738 -0.218040 0.376970 0.238790 -4.150392 -2.263843 -9.296807 49.663960 -17.392314 20.514405 -26.664826 -2.935966 -15.289027 13.788883 1.002836 -2.236359 4.231074 -7.650895 18.883588 -13.484860 3.467620 -7.143460 -12.388292 24.235014 -12.797402 -33.855207 24.685307 -4.812835 5.808330 18.973708 1.058896 -4.678807 1.774175 0.310120 0.343490 -0.234220 -0.038600 -20.117265 -10.498799 17.162538 33.535438 -4.562532 -7.599527 -27.837127 71.857960 -16.398095 1.905920 -2.181715 -0.325110 0.081340 0.227470 -0.239440 
0.081100 16.036880 -6.420390 14.049474 -0.247055 16.043862 -15.196007 11.445559 2.312601 22.252354 -0.394872 -30.996027 13.146135 2.493508 10.782621 -0.419388 3.691548 3.318205 -0.106340 -0.427010 0.075570 18.849430 -7.406263 6.540146 -46.374756 0.935491 -49.307919 54.698011 -27.511589 24.654868 -1.395236 -9.741071 1.071885 -0.186400 0.374700 0.230070 -4.278875 -2.066705 -9.203698 50.419289 -17.718971 19.195941 -26.328814 -3.583918 -13.544270 12.820807 -0.124329 -2.447766 2.417340 -6.284192 19.354013 -11.956170 3.098950 -6.818810 -11.184309 23.577970 -11.888485 -35.275995 27.006295 -5.713855 5.213619 19.597304 1.074287 -4.640171 1.841968 0.268930 0.330190 -0.225640 -0.001030 -19.366740 -9.902576 15.942649 31.374796 -1.458006 -6.368286 -26.355421 65.246840 -13.698811 1.967846 -2.183349 -0.284080 0.077510 0.185550 -0.197270 
0.112230 15.998720 -6.383240 13.862115 -3.157730 14.463939 -15.048868 11.619663 1.928567 23.178058 -0.135591 -25.355205 10.535738 2.844640 10.361821 -0.366645 3.650390 3.292478 -0.022980 -0.338180 0.054960 18.925115 -7.826944 6.556766 -46.739981 1.311225 -48.056507 53.352230 -28.403791 26.768219 -1.453634 -9.938746 0.984035 -0.171360 0.316920 0.243780 -4.597450 -1.520886 -9.016422 50.583870 -17.562769 17.945688 -24.925634 -3.910553 -8.410569 10.736098 -2.178193 -4.043324 -1.165193 -4.290250 22.472886 -8.148570 0.830280 -6.823960 -10.702760 19.254871 -7.895856 -38.736163 29.449041 -8.444187 2.460202 21.763063 0.680746 -4.552006 2.085986 0.267330 0.245870 -0.196720 0.025130 -15.119840 -8.336152 12.340345 25.079004 1.690658 -4.717006 -27.229230 51.729158 -10.539110 2.100716 -2.024784 -0.194020 0.018940 0.157520 -0.149630 
0.150070 15.963130 -6.341900 13.853296 -4.432388 14.145620 -14.998904 11.808733 1.670078 22.537389 -0.332905 -21.492668 8.258709 3.091393 10.554225 -0.387220 3.630586 3.326144 0.058910 -0.244960 0.127220 18.930392 -7.999847 6.619602 -47.141583 0.953975 -47.573079 52.982715 -28.725782 27.432806 -1.510278 -10.029317 0.953652 -0.119990 0.280680 0.256530 -4.654832 -1.425353 -8.907007 50.908131 -16.803453 16.883260 -24.002638 -3.613850 -6.894320 10.269309 -1.703184 -4.816162 -0.561861 -5.402043 22.759999 -9.192430 0.267780 -7.727690 -8.828615 18.515446 -7.163561 -35.943975 28.590554 -7.699969 1.751852 25.997221 0.928322 -4.570669 2.051374 0.279430 0.233750 -0.151060 0.054980 -15.911400 -7.928391 12.318173 25.402615 4.356907 -3.625506 -33.414414 41.529677 -10.500685 2.201801 -1.977301 -0.173130 0.028950 0.096650 -0.152830 
0.182460 15.962410 -6.320000 13.680901 -5.321470 14.219192 -15.003030 12.023874 1.545236 22.208686 -0.450948 -19.182765 5.452940 3.797777 12.590785 -0.421278 3.883966 3.266128 0.056060 -0.235090 0.119430 18.900083 -8.000702 6.639528 -46.438157 0.766107 -48.076836 51.166940 -29.046554 28.999946 -1.495013 -10.155544 0.929867 -0.081850 0.333730 0.237800 -4.587613 -1.680864 -8.836051 51.591818 -16.068691 16.708517 -22.895663 -3.088505 -7.875307 9.998633 -1.822814 -4.645936 -0.708713 -5.531599 23.222410 -10.059510 0.032800 -6.809910 -8.110745 19.292682 -7.704001 -30.196948 24.073890 -4.641283 3.398499 31.709981 2.351106 -4.698416 1.926300 0.253080 0.281060 -0.187040 0.065710 -16.220706 -8.306056 12.076968 25.952258 7.343346 -2.504431 -43.107711 33.949516 -11.860281 2.303233 -1.942609 -0.209160 0.087780 0.107980 -0.151470 
0.213450 15.976630 -6.308850 14.076265 -6.159528 14.488349 -15.021326 12.275581 1.412906 20.555176 -0.536650 -18.129469 3.076481 4.748620 16.746089 -0.429507 4.231320 3.156450 0.040380 -0.234330 0.086940 18.871196 -7.966778 6.648764 -45.945087 0.711071 -48.532187 49.084894 -28.554584 30.006685 -1.436026 -10.167673 0.927432 -0.054570 0.377190 0.211940 -4.509836 -2.018040 -8.721502 51.730498 -15.822064 16.736767 -20.520852 -3.216731 -9.711421 8.622888 -3.100324 -3.626165 -2.521086 -4.393411 23.024970 -10.284110 0.531290 -6.272680 -7.324390 21.080528 -8.228749 -28.396466 25.390747 -4.147683 7.427770 27.263155 2.923001 -4.770146 1.900414 0.220960 0.310690 -0.229640 0.073230 -14.596813 -9.283449 10.668484 24.358737 10.778588 -1.785943 -57.102857 30.407706 -15.505400 2.362863 -1.914946 -0.239990 0.119840 0.121830 -0.143210 
0.219860 16.015050 -6.322080 14.253497 -6.944096 13.701820 -15.059544 12.640807 1.327440 18.578775 -0.498840 -16.821088 2.205642 5.572949 21.130127 -0.406621 4.697999 3.023300 0.026170 -0.272990 0.089800 18.798706 -7.910875 6.631288 -45.318749 1.171608 -48.164761 47.682090 -27.843803 30.798042 -1.412296 -10.115220 0.963825 -0.066440 0.394510 0.172390 -4.342222 -2.592636 -8.636048 51.805712 -16.337604 18.460477 -19.291447 -3.102627 -11.383869 7.753242 -4.464566 -3.243442 -4.647340 -3.282680 24.216635 -10.395350 0.748560 -7.115420 -7.164106 22.004017 -8.577246 -27.328503 24.867979 -3.945147 10.753473 24.776353 3.475530 -4.790175 1.862094 0.272290 0.286640 -0.235290 0.082580 -13.420549 -8.890450 9.963565 24.974955 14.154789 -1.515015 -70.811562 25.071698 -17.984841 2.396840 -1.879192 -0.291380 0.179750 0.128030 -0.157360 
0.230730 16.082990 -6.359640 14.473253 -7.431892 11.999619 -15.123023 13.080446 1.335704 16.228125 -0.467745 -15.663203 2.180473 6.304580 25.993070 -0.254486 5.243797 2.847711 -0.026060 -0.339560 0.033610 18.683677 -7.838923 6.525559 -44.325246 2.006265 -46.906174 45.769646 -26.710608 31.656898 -1.352654 -9.984404 1.006717 -0.129410 0.399210 0.123390 -4.088322 -3.410927 -8.558889 51.611611 -17.735940 21.431778 -18.139001 -3.139161 -12.819356 6.612698 -6.689442 -3.555949 -8.280401 -1.570744 26.101117 -8.310310 0.209180 -7.225670 -7.082546 22.201193 -8.219099 -28.802376 25.716608 -5.063457 13.842245 20.574593 3.605457 -4.720034 1.976652 0.294320 0.221660 -0.244650 0.081010 -11.678617 -7.004545 9.306033 24.268049 17.495675 -1.491076 -83.153738 19.401343 -19.012205 2.454174 -1.857480 -0.299460 0.194930 0.147040 -0.131030 
0.237320 16.151750 -6.401900 14.482823 -7.798843 10.551270 -15.266971 13.464678 1.560027 14.973077 -0.526696 -15.745848 0.777442 7.992566 32.012638 0.001931 6.254601 2.499346 -0.028680 -0.335720 -0.002290 18.504051 -7.563331 6.341525 -43.247716 3.007378 -45.639166 44.056762 -25.604164 32.418703 -1.325528 -9.859653 1.063635 -0.161320 0.391070 0.109190 -3.652641 -4.610777 -8.603168 51.083016 -18.931118 25.382476 -17.117355 -2.339600 -15.051778 6.221750 -8.563692 -4.222355 -11.396339 -0.472408 27.504969 -7.634850 -0.074530 -7.669310 -7.718156 22.414033 -8.327518 -28.409308 25.308513 -5.322240 15.340343 17.489787 3.404164 -4.640537 2.062654 0.303540 0.174790 -0.223350 0.115820 -10.775658 -4.495358 9.366660 23.386613 20.486913 -1.431888 -94.693150 12.321654 -17.211741 2.495927 -1.901514 -0.275540 0.193320 0.124120 -0.094150 
0.240660 16.201480 -6.452920 14.652235 -8.406903 9.763213 -15.424375 13.707334 1.848327 13.233125 -0.833140 -16.508444 -0.593042 9.821167 37.771406 0.281626 7.319466 2.127759 -0.064940 -0.371040 -0.037410 18.337113 -7.226057 6.212917 -42.467896 3.975828 -45.262657 42.680069 -24.657552 33.290334 -1.293707 -9.772827 1.097672 -0.212610 0.365570 0.099040 -3.225698 -5.709818 -8.746053 49.370767 -19.530762 29.368119 -16.297732 -0.873579 -17.211582 6.067676 -9.459477 -5.405678 -13.134608 -0.173869 28.857934 -8.165220 0.097100 -7.433820 -7.774709 22.139067 -8.216352 -27.961166 25.327121 -5.771480 16.038430 14.184729 2.897104 -4.578497 2.138154 0.310930 0.139160 -0.210910 0.111340 -10.774648 -1.821180 10.013756 24.596110 22.089436 -1.407451 -105.850621 4.924501 -12.631987 2.534093 -1.973169 -0.257400 0.165730 0.129570 -0.079940 
